<svg xmlns="http://www.w3.org/2000/svg" width="1024" height="500" viewBox="0 0 1024 500">
  <defs>
    <linearGradient id="bg" x1="0" y1="0" x2="1" y2="1">
      <stop offset="0" stop-color="#101215"/>
      <stop offset="0.55" stop-color="#1b2328"/>
      <stop offset="1" stop-color="#12362f"/>
    </linearGradient>
    <linearGradient id="panel" x1="0" y1="0" x2="1" y2="1">
      <stop offset="0" stop-color="#f7faf8"/>
      <stop offset="1" stop-color="#dcefe8"/>
    </linearGradient>
    <filter id="shadow" x="-20%" y="-20%" width="140%" height="140%">
      <feDropShadow dx="0" dy="20" stdDeviation="22" flood-color="#000000" flood-opacity="0.3"/>
    </filter>
  </defs>
  <rect width="1024" height="500" fill="url(#bg)"/>
  <path d="M0 390C130 320 252 340 390 380C545 425 690 430 1024 285V500H0Z" fill="#1fa980" opacity="0.22"/>
  <path d="M0 438C165 383 300 410 443 440C615 477 785 472 1024 370V500H0Z" fill="#f2c94c" opacity="0.2"/>

  <g transform="translate(84 82)">
    <rect x="0" y="0" width="116" height="116" rx="28" fill="#20b486"/>
    <path d="M31 59.5L51 80L88 38" fill="none" stroke="#ffffff" stroke-width="14" stroke-linecap="round" stroke-linejoin="round"/>
    <text x="144" y="45" font-family="Inter, Arial, sans-serif" font-size="46" font-weight="800" fill="#ffffff">QuickPOS</text>
    <text x="146" y="86" font-family="Inter, Arial, sans-serif" font-size="23" font-weight="600" fill="#cfe8df">Point of sale for growing stores</text>
  </g>

  <g transform="translate(94 244)">
    <text x="0" y="0" font-family="Inter, Arial, sans-serif" font-size="48" font-weight="800" fill="#ffffff">Sell, track stock, and run reports.</text>
    <text x="0" y="48" font-family="Inter, Arial, sans-serif" font-size="24" font-weight="500" fill="#d7e7e1">POS, inventory, customers, staff roles, and business records in one app.</text>
  </g>

  <g transform="translate(684 78)" filter="url(#shadow)">
    <rect x="0" y="0" width="248" height="344" rx="30" fill="url(#panel)"/>
    <rect x="22" y="24" width="204" height="46" rx="14" fill="#111418"/>
    <circle cx="48" cy="47" r="10" fill="#20b486"/>
    <rect x="76" y="40" width="112" height="12" rx="6" fill="#ffffff" opacity="0.86"/>
    <rect x="22" y="94" width="92" height="76" rx="16" fill="#20b486"/>
    <rect x="134" y="94" width="92" height="76" rx="16" fill="#f2c94c"/>
    <rect x="22" y="194" width="204" height="22" rx="11" fill="#23302d" opacity="0.18"/>
    <rect x="22" y="232" width="170" height="22" rx="11" fill="#23302d" opacity="0.18"/>
    <rect x="22" y="270" width="204" height="48" rx="16" fill="#111418"/>
    <text x="48" y="304" font-family="Inter, Arial, sans-serif" font-size="22" font-weight="800" fill="#ffffff">Checkout</text>
  </g>
</svg>
